<svg xmlns="http://www.w3.org/2000/svg" width="280" height="280" viewBox="0 0 280 280" fill="none">
  <rect width="280" height="280" fill="#071423"/>
  <g opacity="0.08" fill="#7dd3fc">
    <circle cx="24" cy="36" r="1.2"/>
    <circle cx="78" cy="18" r="1.1"/>
    <circle cx="142" cy="34" r="1.3"/>
    <circle cx="206" cy="26" r="1.1"/>
    <circle cx="256" cy="42" r="1.2"/>
    <circle cx="36" cy="92" r="1.1"/>
    <circle cx="104" cy="84" r="1.2"/>
    <circle cx="168" cy="98" r="1.1"/>
    <circle cx="232" cy="88" r="1.3"/>
    <circle cx="58" cy="146" r="1.2"/>
    <circle cx="122" cy="156" r="1.1"/>
    <circle cx="196" cy="148" r="1.2"/>
    <circle cx="252" cy="162" r="1.1"/>
    <circle cx="32" cy="204" r="1.2"/>
    <circle cx="92" cy="214" r="1.1"/>
    <circle cx="154" cy="202" r="1.3"/>
    <circle cx="224" cy="216" r="1.1"/>
    <circle cx="268" cy="198" r="1.2"/>
    <circle cx="44" cy="260" r="1.1"/>
    <circle cx="116" cy="252" r="1.2"/>
    <circle cx="182" cy="266" r="1.1"/>
    <circle cx="244" cy="254" r="1.2"/>
  </g>
</svg>
